<?xml version="1.0" standalone="no"?>
<!DOCTYPE svg PUBLIC "-//W3C//DTD SVG 20010904//EN"
 "http://www.w3.org/TR/2001/REC-SVG-20010904/DTD/svg10.dtd">
<svg version="1.0" xmlns="http://www.w3.org/2000/svg"
 width="656.000000pt" height="656.000000pt" viewBox="0 0 656.000000 656.000000"
 preserveAspectRatio="xMidYMid meet">
<metadata>
Created by potrace 1.14, written by Peter Selinger 2001-2017
</metadata>
<g transform="translate(0.000000,656.000000) scale(0.100000,-0.100000)"
fill="#000000" stroke="none">
<path d="M5579 4901 c-90 -29 -154 -70 -227 -145 -75 -77 -121 -157 -146 -253
-18 -69 -21 -181 -6 -233 l10 -35 -480 -480 -480 -480 -151 1 -150 0 -339 339
-338 338 5 116 c6 131 -6 193 -59 293 -39 74 -156 187 -234 226 -253 128 -554
50 -710 -185 -72 -108 -109 -279 -86 -389 l11 -50 -620 -620 c-425 -424 -625
-618 -637 -615 -9 2 -64 4 -122 4 -87 0 -117 -4 -176 -25 -227 -80 -374 -287
-374 -525 0 -140 55 -269 162 -379 114 -118 224 -164 388 -164 164 0 274 46
388 164 75 77 121 157 146 253 18 69 21 181 6 233 l-10 35 621 621 621 621 37
-8 c50 -12 169 -11 211 1 l35 10 348 -347 c243 -244 345 -352 341 -363 -4 -8
-9 -50 -12 -93 -16 -248 133 -471 372 -555 102 -36 250 -36 352 0 228 81 374
287 374 526 0 37 -4 81 -9 98 -9 31 -6 34 476 515 330 331 489 483 501 480 9
-2 64 -4 122 -4 87 0 117 4 176 25 227 80 374 287 374 525 0 140 -55 269 -162
379 -73 76 -146 121 -237 148 -75 22 -238 21 -312 -3z"/>
</g>
</svg>
